<svg width="429.00000000000006" height="85.80000000000001" viewBox="0 0 390 78" class="looka-1j8o68f"><defs id="SvgjsDefs5570"><linearGradient id="SvgjsLinearGradient5577"><stop id="SvgjsStop5578" stop-color="#fbb040" offset="0"></stop><stop id="SvgjsStop5579" stop-color="#f9ed32" offset="1"></stop></linearGradient></defs><g id="SvgjsG5571" featurekey="nameGroupContainer" transform="matrix(1,0,0,1,0,0)" fill="url(#SvgjsLinearGradient5577)"><rect xmlns="http://www.w3.org/2000/svg" width="390" height="78" rx="10" ry="10"></rect></g><g id="SvgjsG5572" featurekey="VomJeJ-0" transform="matrix(2.2971909046173096,0,0,2.2971909046173096,20.229719687916404,10.995016056480353)" fill="#17554b"><path d="M13.16 17.92 l0.86 0.5 c-1.5 1.32 -3.32 2.06 -5.38 2.06 c-4.74 0 -8.04 -3.84 -8.04 -8.02 c0 -0.56 0.06 -1.14 0.18 -1.68 l0.78 0.44 l-0.06 -0.04 c0.38 -3.12 3.04 -5.52 6.26 -5.52 c1.68 0 3.26 0.66 4.44 1.84 c0.18 0.18 0.4 0.22 0.6 0.02 c0.22 -0.22 0.1 -0.46 -0.02 -0.58 c-1.34 -1.36 -3.14 -2.08 -5.02 -2.08 c-3.54 0 -6.44 2.54 -7 5.9 l-0.86 -0.5 c0.76 -3.38 3.72 -6.34 7.86 -6.34 c2.16 0 4.18 0.86 5.68 2.36 c0.52 0.52 0.5 1.34 0 1.88 c-0.54 0.54 -1.36 0.54 -1.9 0 c-1 -1.02 -2.36 -1.58 -3.78 -1.58 c-2.82 0 -5.24 2.22 -5.38 5.12 l-0.74 -0.44 c-0.08 0.4 -0.1 0.8 -0.1 1.2 c0 3.92 3.16 7.1 7.1 7.1 c1.66 0 3.26 -0.58 4.52 -1.64 z M8.64 18.74 c-3.48 0 -6.3 -2.8 -6.3 -6.28 c0 -0.26 0 -0.52 0.04 -0.76 l0.88 0.5 l0 0.26 c0 2.96 2.4 5.36 5.38 5.36 c1.02 0 2.02 -0.3 2.88 -0.84 l0.76 0.44 c0.18 -0.14 0.34 -0.3 0.5 -0.44 c0.14 -0.16 0.24 -0.36 0.02 -0.58 c-0.18 -0.18 -0.42 -0.18 -0.6 0 c-0.22 0.2 -0.44 0.4 -0.68 0.58 l-0.88 -0.52 c0.32 -0.2 0.62 -0.44 0.9 -0.72 c0.56 -0.5 1.34 -0.5 1.9 0 c0.52 0.52 0.52 1.38 0 1.9 l-0.3 0.26 l-0.74 -0.42 c-1.08 0.82 -2.38 1.26 -3.76 1.26 z M19.12 17.34 l6.92 0 c0.72 0 1.32 0.6 1.32 1.34 c0 0.72 -0.6 1.32 -1.32 1.32 l-7.56 0 c-1.12 0 -2.02 -0.9 -2.02 -2.02 l0 -6.58 l0.8 0.46 l0 -6.16 c0 -0.22 -0.18 -0.4 -0.4 -0.4 s-0.4 0.18 -0.4 0.4 l0 5.7 l-0.94 -0.54 l0 -5.16 c0 -0.74 0.6 -1.34 1.34 -1.34 c0.72 0 1.32 0.6 1.32 1.34 l0 6.7 l-0.78 -0.46 l0 6.1 c0 0.58 0.44 1.04 1.02 1.04 l0.1 0 c-0.2 -0.32 -0.32 -0.7 -0.32 -1.1 l0 -5.58 l0.92 0.54 l0 4.4 z M20.22 19.08 l5.82 0 c0.22 0 0.4 -0.18 0.4 -0.4 s-0.18 -0.4 -0.4 -0.4 l-6.88 0 c0.14 0.46 0.56 0.8 1.06 0.8 z M36.06 3.960000000000001 c5.1 0 8.02 4.28 8.02 8.04 c0 2.12 -0.76 3.98 -1.98 5.34 l0.8 0.46 c-1.5 1.68 -3.72 2.68 -6.02 2.68 c-4.82 0 -8.04 -3.9 -8.04 -8.02 c0 -0.86 0.16 -1.72 0.44 -2.54 l0.7 0.42 c0.74 -2.68 3.18 -4.64 6.08 -4.64 c3.48 0 6.28 2.82 6.28 6.3 c0 1.7 -0.68 3.28 -1.82 4.4 l0.76 0.44 c1.18 -1.26 1.88 -2.96 1.88 -4.84 c0 -3.94 -3.18 -7.1 -7.1 -7.1 c-3.16 0 -5.9 2.08 -6.78 5.02 l-0.82 -0.46 c1.04 -3.02 3.86 -5.5 7.6 -5.5 z M36.06 6.640000000000001 c-2.5 0 -4.7 1.74 -5.24 4.18 l0.82 0.46 c-0.1 0.38 -0.14 0.78 -0.14 1.18 c0 2.96 2.4 5.36 5.38 5.36 c1.38 0 2.64 -0.54 3.62 -1.42 l-0.82 -0.46 c1.06 -0.98 1.74 -2.38 1.74 -3.94 c0 -2.9 -2.36 -5.36 -5.36 -5.36 z M30.800000000000004 10.82 l-0.72 -0.42 c-0.2 0.64 -0.3 1.34 -0.3 2.06 c0 3.86 3.12 7.1 7.1 7.1 c2.04 0 3.9 -0.86 5.18 -2.24 l-0.72 -0.44 c-1.14 1.14 -2.72 1.86 -4.46 1.86 c-3.48 0 -6.3 -2.8 -6.3 -6.28 c0 -0.58 0.08 -1.12 0.22 -1.64 z M50.3 10.82 l-1.18 -0.7 l3.08 7.36 c0.38 0.98 1.3 1.64 2.34 1.64 s1.96 -0.66 2.34 -1.64 l0.98 -2.32 l0.82 0.48 l-0.92 2.16 c-0.52 1.36 -1.78 2.24 -3.22 2.24 c-1.48 0 -2.72 -0.94 -3.22 -2.24 l-3.54 -8.44 l1.22 0.7 l-0.02 -0.02 l-1.96 -4.66 c-0.1 -0.26 -0.34 -0.36 -0.56 -0.26 c-0.2 0.08 -0.3 0.32 -0.22 0.54 l1.56 3.7 l-1.34 -0.76 l-1.1 -2.62 c-0.26 -0.7 0.08 -1.44 0.8 -1.72 s1.46 0.08 1.72 0.8 z M57.34 14.879999999999999 l-0.8 -0.48 l3.66 -8.74 c0.08 -0.22 -0.04 -0.44 -0.24 -0.52 c-0.28 -0.1 -0.48 0.08 -0.54 0.24 l-3.6 8.6 l-0.82 -0.46 l3.56 -8.46 c0.26 -0.72 1 -1.06 1.72 -0.8 c0.68 0.26 1.06 1.02 0.8 1.72 z M54.54 18.24 c-0.68 0 -1.3 -0.4 -1.56 -1.04 l-2.68 -6.38 l1.34 0.76 l2.2 5.26 c0.12 0.28 0.4 0.46 0.7 0.46 s0.58 -0.18 0.7 -0.46 l1.08 -2.56 l0.82 0.48 l-1.04 2.44 c-0.26 0.64 -0.88 1.04 -1.56 1.04 z M65.96 17.34 l8.3 0 c0.74 0 1.34 0.6 1.34 1.34 c0 0.72 -0.6 1.32 -1.34 1.32 l-8.94 0 c-1.12 0 -2.02 -0.9 -2.02 -2.02 l0 -7.96 l0.78 0.44 l0 -3.9 c0 -0.26 0.22 -0.46 0.46 -0.46 l8.78 -0.02 c0.22 0 0.4 -0.16 0.4 -0.38 s-0.18 -0.4 -0.4 -0.4 l-8.94 0 c-0.6 0 -1.08 0.48 -1.08 1.08 l0 3.64 l-0.94 -0.54 l0 -3.1 c0 -1.12 0.9 -2.02 2.02 -2.02 l8.94 0 c0.74 0 1.34 0.6 1.34 1.34 c0 0.72 -0.6 1.32 -1.34 1.32 l-8.3 0 l0 3.54 l3.46 0 c0.74 0 1.34 0.6 1.34 1.32 c0 0.64 -0.46 1.18 -1.06 1.3 l0.94 0.54 c-0.08 0.02 -0.18 0.04 -0.28 0.04 l-3.46 0 l0 3.58 z M64.24 10.58 l0 0.84 c0.22 -0.16 0.5 -0.26 0.78 -0.3 l0 -0.1 z M65.32 19.08 l8.94 0 c0.22 0 0.4 -0.18 0.4 -0.4 s-0.18 -0.4 -0.4 -0.4 l-8.78 0 c-0.24 0 -0.46 -0.22 -0.46 -0.48 l0 -4.5 c0 -0.26 0.22 -0.48 0.46 -0.48 l2.66 0 l-0.94 -0.54 l1.28 0 c0.22 0 0.4 -0.18 0.4 -0.4 s-0.18 -0.4 -0.4 -0.4 l-2.66 0 l0.92 0.54 l-1.42 0 c-0.6 0 -1.08 0.5 -1.08 1.1 l0 4.86 c0 0.6 0.48 1.1 1.08 1.1 z M86.02 13.8 l3.94 3.92 c0.52 0.52 0.52 1.36 0 1.88 c-0.5 0.5 -1.36 0.52 -1.88 0.04 l-5.84 -5.82 c-0.86 0 -1.52 0.84 -1.52 1.74 l0 3.1 c0 0.74 -0.6 1.34 -1.34 1.34 s-1.34 -0.6 -1.34 -1.34 l0 -9.46 l0.8 0.46 l0 -3.08 c0 -0.26 0.22 -0.46 0.48 -0.46 l5.64 0 c1.5 0 2.7 1.2 2.7 2.68 c0 1.54 -1.28 2.68 -2.7 2.68 l-2.96 0 l0.94 0.54 l-0.44 0 c-1.94 0 -3.52 1.58 -3.52 3.52 l0 3.12 c0 0.22 0.18 0.4 0.4 0.4 s0.4 -0.18 0.4 -0.4 l0 -3.1 c0 -1.48 1.22 -2.7 2.7 -2.7 l1.92 0 l-0.94 -0.54 l1.5 0 c1.94 0 3.52 -1.58 3.52 -3.52 s-1.58 -3.52 -3.52 -3.52 l-6.92 0 l0 3.92 l-0.94 -0.54 l0 -3.84 c0 -0.26 0.2 -0.46 0.46 -0.46 l7.4 0 c2.46 0 4.44 1.98 4.44 4.44 c0 2.42 -1.92 4.38 -4.32 4.46 z M78.97999999999999 9.74 l0 3.08 c0.1 -0.14 0.24 -0.28 0.36 -0.42 c0.14 -0.14 0.3 -0.28 0.44 -0.38 l0 -1.82 l0.8 0.46 c0.32 -0.06 0.64 -0.1 0.98 -0.1 l3.4 0 c0.98 0 1.76 -0.78 1.76 -1.76 c0 -0.96 -0.78 -1.76 -1.76 -1.76 l-5.18 0 l0 3.16 z M80.72 10.74 l0 0.72 c0.26 -0.12 0.52 -0.2 0.8 -0.26 z M89.3 18.94 c0.22 -0.22 0.12 -0.46 0 -0.56 l-4.6 -4.58 l-1.14 0 l5.16 5.14 c0.16 0.16 0.4 0.18 0.58 0 z M93.58 4.359999999999999 l8.94 0 c0.74 0 1.34 0.6 1.34 1.32 c0 0.74 -0.6 1.34 -1.34 1.34 l-8.3 0 l0 3.54 l3.46 0 c0.74 0 1.34 0.58 1.34 1.32 c0 0.64 -0.46 1.18 -1.08 1.32 l0.94 0.54 c-0.08 0.02 -0.18 0.02 -0.26 0.02 l-3.46 0 l0 4.9 c0 0.74 -0.6 1.34 -1.32 1.34 c-0.74 0 -1.34 -0.6 -1.34 -1.34 l0 -8.62 l0.94 0.56 l0 0.82 c0.22 -0.16 0.5 -0.26 0.78 -0.3 l0 -0.08 l-0.94 -0.54 l0 -3.94 c0 -0.26 0.22 -0.48 0.46 -0.48 l8.78 0 c0.22 0 0.4 -0.18 0.4 -0.4 s-0.18 -0.4 -0.4 -0.4 l-8.94 0 c-0.6 0 -1.08 0.5 -1.08 1.1 l0 3.66 l-0.94 -0.54 l0 -3.12 c0 -1.12 0.9 -2.02 2.02 -2.02 z M98.08 11.88 c0 -0.22 -0.18 -0.4 -0.4 -0.4 l-2.7 0 l0.94 0.54 l-1.4 0 c-0.6 0 -1.08 0.5 -1.08 1.1 l0 5.54 c0 0.22 0.18 0.4 0.4 0.4 s0.38 -0.18 0.38 -0.4 l0 -5.38 c0 -0.24 0.22 -0.46 0.46 -0.46 l2.6 0 l-0.92 -0.54 l1.32 0 c0.22 0 0.4 -0.18 0.4 -0.4 z M108.96 12.34 l0 6.32 c0 0.74 -0.6 1.34 -1.34 1.34 s-1.32 -0.6 -1.32 -1.34 l0 -7.86 l0.78 0.46 l0 -5.58 c0 -0.22 -0.16 -0.4 -0.38 -0.4 s-0.4 0.18 -0.4 0.4 l0 5.12 l-0.94 -0.54 l0 -4.58 c0 -0.72 0.6 -1.32 1.34 -1.32 c0.72 0 1.32 0.6 1.32 1.32 l0 6.12 l-0.8 -0.46 l0 7.32 c0 0.22 0.18 0.4 0.4 0.4 s0.4 -0.18 0.4 -0.4 l0 -6.86 z M114.05999999999999 17.34 l8.3 0 c0.74 0 1.34 0.6 1.34 1.34 c0 0.72 -0.6 1.32 -1.34 1.32 l-8.94 0 c-1.12 0 -2.02 -0.9 -2.02 -2.02 l0 -7.96 l0.78 0.44 l0 -3.9 c0 -0.26 0.22 -0.46 0.46 -0.46 l8.78 -0.02 c0.22 0 0.4 -0.16 0.4 -0.38 s-0.18 -0.4 -0.4 -0.4 l-8.94 0 c-0.6 0 -1.08 0.48 -1.08 1.08 l0 3.64 l-0.94 -0.54 l0 -3.1 c0 -1.12 0.9 -2.02 2.02 -2.02 l8.94 0 c0.74 0 1.34 0.6 1.34 1.34 c0 0.72 -0.6 1.32 -1.34 1.32 l-8.3 0 l0 3.54 l3.46 0 c0.74 0 1.34 0.6 1.34 1.32 c0 0.64 -0.46 1.18 -1.06 1.3 l0.94 0.54 c-0.08 0.02 -0.18 0.04 -0.28 0.04 l-3.46 0 l0 3.58 z M112.33999999999999 10.58 l0 0.84 c0.22 -0.16 0.5 -0.26 0.78 -0.3 l0 -0.1 z M113.41999999999999 19.08 l8.94 0 c0.22 0 0.4 -0.18 0.4 -0.4 s-0.18 -0.4 -0.4 -0.4 l-8.78 0 c-0.24 0 -0.46 -0.22 -0.46 -0.48 l0 -4.5 c0 -0.26 0.22 -0.48 0.46 -0.48 l2.66 0 l-0.94 -0.54 l1.28 0 c0.22 0 0.4 -0.18 0.4 -0.4 s-0.18 -0.4 -0.4 -0.4 l-2.66 0 l0.92 0.54 l-1.42 0 c-0.6 0 -1.08 0.5 -1.08 1.1 l0 4.86 c0 0.6 0.48 1.1 1.08 1.1 z M128.79999999999998 17.34 l6.92 0 c0.72 0 1.32 0.6 1.32 1.34 c0 0.72 -0.6 1.32 -1.32 1.32 l-7.56 0 c-1.12 0 -2.02 -0.9 -2.02 -2.02 l0 -6.58 l0.8 0.46 l0 -6.16 c0 -0.22 -0.18 -0.4 -0.4 -0.4 s-0.4 0.18 -0.4 0.4 l0 5.7 l-0.94 -0.54 l0 -5.16 c0 -0.74 0.6 -1.34 1.34 -1.34 c0.72 0 1.32 0.6 1.32 1.34 l0 6.7 l-0.78 -0.46 l0 6.1 c0 0.58 0.44 1.04 1.02 1.04 l0.1 0 c-0.2 -0.32 -0.32 -0.7 -0.32 -1.1 l0 -5.58 l0.92 0.54 l0 4.4 z M129.89999999999998 19.08 l5.82 0 c0.22 0 0.4 -0.18 0.4 -0.4 s-0.18 -0.4 -0.4 -0.4 l-6.88 0 c0.14 0.46 0.56 0.8 1.06 0.8 z M144.7 5.26 l-4.44 0 c-0.6 0 -1.08 0.5 -1.08 1.1 l0 3.58 l-0.94 -0.54 l0 -3.04 c0 -1.12 0.92 -2.02 2.02 -2.02 l4.44 0 c4.62 0 7.56 3.72 7.56 7.54 c0 1.76 -0.6 3.4 -1.62 4.68 l-0.82 -0.48 c0.94 -1.14 1.5 -2.6 1.5 -4.2 c0 -3.7 -3.04 -6.62 -6.62 -6.62 z M142.92 19.06 l2.72 0 c2.06 0 3.9 -0.96 5.12 -2.42 l0.82 0.46 c-1.4 1.76 -3.54 2.9 -5.94 2.9 l-4.44 0 c-1.1 0 -2.02 -0.9 -2.02 -2.02 l0 -8.04 l0.78 0.44 l0 -3.84 c0 -0.26 0.22 -0.48 0.48 -0.48 l4.32 0 c3.3 0.04 5.78 2.68 5.78 5.86 c0 1.46 -0.54 2.76 -1.42 3.76 l-0.82 -0.46 c0.8 -0.86 1.3 -2.02 1.3 -3.3 c0.04 -2.68 -2.16 -4.92 -4.84 -4.92 l-3.86 0 l0 3.94 l-0.78 -0.44 l0 7.48 c0 0.6 0.5 1.08 1.1 1.08 c-0.2 -0.3 -0.32 -0.68 -0.32 -1.08 l0 -7.04 l0.94 0.54 l0 5.86 l3.78 0 c1.42 0 2.72 -0.62 3.62 -1.58 l0.82 0.48 c-1.08 1.24 -2.68 2.02 -4.44 2.02 l-3.74 0 c0.12 0.46 0.54 0.8 1.04 0.8 z"></path></g><g id="SvgjsG5573" featurekey="sloganFeature-0" transform="matrix(1,0,0,1,195,98)" fill="#17554b"><path d=""></path></g></svg>
